<?xml version="1.0" encoding="utf-8"?>
<!-- Generator: Adobe Illustrator 27.6.1, SVG Export Plug-In . SVG Version: 6.00 Build 0)  -->
<svg version="1.1" id="Capa_1" xmlns="http://www.w3.org/2000/svg" xmlns:xlink="http://www.w3.org/1999/xlink" x="0px" y="0px"
	 viewBox="0 0 64 32" style="enable-background:new 0 0 64 32;" xml:space="preserve">
<style type="text/css">
	.st0{fill:#FE8300;}
	.st1{fill:#F3E528;}
	.st2{fill:#010101;}
</style>
<g>
	<path class="st0" d="M57.2,11.13c0.08,0.27,0.17,0.57,0.27,0.86c0.29,0.88,0.58,1.75,0.86,2.63c0.44,1.36,0.9,2.72,1.31,4.09
		c0.29,0.97,0.2,1.95-0.16,2.9c-0.3,0.79-0.82,1.43-1.33,2.08c-0.56,0.72-1.22,1.37-1.95,1.91c-0.78,0.57-1.6,1.09-2.49,1.49
		c-0.51,0.24-1.05,0.39-1.6,0.52c-0.45,0.11-0.91,0.21-1.37,0.28c-1.26,0.19-2.52,0.24-3.79,0.13c-0.93-0.08-1.79-0.31-2.55-0.87
		c-0.51-0.38-0.94-0.83-1.28-1.36c-0.44-0.69-0.87-1.4-1.31-2.1c-0.38-0.6-0.75-1.2-1.12-1.81c-0.47-0.79-0.93-1.59-1.43-2.35
		c-0.58-0.87-1.1-1.78-1.66-2.66c-0.47-0.74-0.9-1.51-1.37-2.25c-0.13-0.2-0.03-0.3,0.14-0.38c0.95-0.42,1.9-0.84,2.85-1.27
		c0.73-0.33,1.46-0.66,2.19-1c1.19-0.54,2.37-1.07,3.56-1.6c0.67-0.3,1.35-0.55,2-0.89c0.69-0.36,1.44-0.6,2.12-0.98
		c0.38-0.21,0.82-0.35,1.22-0.53c0.59-0.26,1.17-0.52,1.76-0.79c0.67-0.3,1.34-0.58,2-0.9c0.4-0.19,0.81-0.34,1.21-0.53
		c0.12-0.06,0.18-0.04,0.22,0.11c0.29,0.91,0.56,1.82,0.88,2.72c0.18,0.5,0.27,1.03,0.5,1.52c0.13,0.28,0.07,0.64,0.33,0.87
		C57.27,11.03,57.2,11.06,57.2,11.13z M47.92,17.67c-0.12,0.01-0.25-0.03-0.27,0.1c-0.02,0.12,0.06,0.18,0.17,0.22
		c0.35,0.13,0.69,0.2,1.08,0.1c0.59-0.16,1.03-0.47,1.26-1.04c0.06-0.13,0.21-0.31,0-0.4c-0.21-0.1-0.25,0.14-0.3,0.27
		c-0.21,0.56-1.07,1.05-1.75,0.81C48.04,17.7,47.96,17.68,47.92,17.67z M53,15.78c-0.04-0.37-0.19-0.68-0.48-0.92
		c-0.18-0.15-0.35-0.11-0.45,0.11c-0.13,0.29,0.06,0.78,0.37,1.05c0.11,0.1,0.23,0.17,0.37,0.11C52.97,16.06,52.99,15.91,53,15.78z
		 M45.03,18.02c-0.15-0.01-0.23,0.09-0.27,0.21c-0.11,0.33,0.2,0.98,0.52,1.12c0.17,0.07,0.29,0.03,0.36-0.16
		c0.11-0.34-0.12-0.94-0.44-1.1C45.15,18.06,45.09,18.04,45.03,18.02z"/>
	<path class="st1" d="M16.23,11.3c3.41-0.02,6.81-0.03,10.22-0.05c0.33,0,0.34,0,0.31,0.33c-0.07,0.72-0.16,1.44-0.23,2.16
		c-0.07,0.72-0.14,1.44-0.21,2.16c-0.07,0.71-0.15,1.42-0.22,2.13c-0.06,0.57-0.12,1.13-0.18,1.7c-0.05,0.52-0.11,1.04-0.16,1.57
		c-0.06,0.58-0.12,1.16-0.19,1.74c-0.1,0.86-0.09,1.74-0.39,2.57c-0.34,0.94-0.92,1.68-1.72,2.29c-0.62,0.47-1.31,0.82-2,1.12
		c-0.77,0.34-1.57,0.62-2.41,0.79c-1.01,0.21-2.01,0.3-3.04,0.27c-0.51-0.02-0.98-0.17-1.47-0.24c-0.94-0.14-1.85-0.43-2.73-0.78
		c-0.91-0.37-1.78-0.83-2.6-1.37c-0.68-0.44-1.08-1.1-1.42-1.8c-0.26-0.52-0.39-1.07-0.42-1.65c-0.03-0.44-0.14-0.88-0.21-1.31
		c-0.04-0.25-0.03-0.51-0.07-0.77c-0.04-0.26-0.12-0.51-0.15-0.77c-0.03-0.26-0.02-0.52-0.06-0.79c-0.12-0.77-0.21-1.54-0.32-2.31
		c-0.08-0.58-0.2-1.16-0.26-1.74c-0.07-0.79-0.19-1.56-0.31-2.34c-0.1-0.68-0.1-1.38-0.3-2.05c-0.02-0.05,0.01-0.12,0.01-0.18
		c0-0.2-0.13-0.46,0.03-0.59c0.15-0.13,0.4-0.04,0.6-0.04C9.62,11.33,12.93,11.31,16.23,11.3z M16.14,19.96
		c0.55-0.04,1.01-0.2,1.38-0.57c0.09-0.09,0.19-0.19,0.08-0.31c-0.12-0.13-0.22-0.04-0.32,0.06c-0.44,0.42-0.94,0.59-1.53,0.37
		c-0.21-0.08-0.4-0.21-0.56-0.36c-0.09-0.08-0.2-0.19-0.31-0.08c-0.11,0.11-0.02,0.25,0.07,0.34C15.29,19.73,15.71,19.9,16.14,19.96
		z M20.62,19c0.02-0.16-0.04-0.32-0.09-0.49c-0.04-0.13-0.13-0.25-0.29-0.26c-0.15-0.01-0.23,0.1-0.29,0.23
		c-0.16,0.35-0.17,0.7,0.03,1.04c0.13,0.23,0.35,0.23,0.5,0.02C20.59,19.38,20.62,19.2,20.62,19z M12.61,18.98
		c0-0.31-0.03-0.43-0.1-0.56c-0.13-0.22-0.39-0.23-0.52-0.01c-0.22,0.38-0.19,0.76,0.02,1.12c0.11,0.2,0.33,0.19,0.47,0.01
		C12.6,19.37,12.63,19.16,12.61,18.98z"/>
	<path class="st2" d="M16.2,8.28c4.67-0.02,9.34-0.05,14.02-0.07c0.44,0,0.48,0.02,0.61,0.46c0.14,0.44,0.11,0.88-0.02,1.31
		c-0.07,0.23-0.23,0.35-0.47,0.35c-0.2,0-0.4,0-0.6,0c-9.19,0.05-18.38,0.09-27.56,0.14c-0.13,0-0.33,0.03-0.43-0.06
		c-0.17-0.14-0.23-0.49-0.27-0.69C1.42,9.43,1.43,9.13,1.5,8.86C1.55,8.69,1.63,8.4,1.85,8.37c0.14-0.02,0.28-0.02,0.41-0.02
		C6.91,8.32,11.55,8.3,16.2,8.28z"/>
	<path class="st2" d="M31.36,13.62c-0.02-0.14-0.01-0.29,0.05-0.39c0.11-0.17,0.37-0.23,0.54-0.3c0.64-0.26,1.27-0.54,1.91-0.82
		c1.92-0.85,3.83-1.73,5.75-2.6c1.93-0.87,3.89-1.68,5.81-2.58c0.15-0.07,0.31-0.14,0.46-0.22c0.82-0.4,1.67-0.73,2.49-1.1
		c1.93-0.89,3.89-1.73,5.82-2.63c1.04-0.48,2.08-0.99,3.14-1.42c0.11-0.04,0.22-0.09,0.33-0.09c0.31-0.01,0.56,0.44,0.69,0.68
		c0.17,0.33,0.24,0.7,0.21,1.07c-0.01,0.14-0.11,0.18-0.22,0.23c-1.43,0.64-2.87,1.27-4.29,1.93c-0.78,0.36-1.57,0.72-2.36,1.07
		c-0.94,0.42-1.88,0.84-2.82,1.25c-0.66,0.29-1.31,0.59-1.97,0.88c-1.26,0.56-2.53,1.13-3.79,1.69c-1.24,0.55-2.48,1.11-3.72,1.67
		c-0.66,0.3-1.32,0.6-1.98,0.9c-0.5,0.22-1,0.45-1.5,0.67c-0.6,0.27-1.21,0.54-1.81,0.81c-0.54,0.24-1.08,0.48-1.61,0.73
		c-0.39,0.18-0.72-0.31-0.89-0.6c-0.1-0.18-0.17-0.38-0.21-0.59C31.38,13.78,31.37,13.7,31.36,13.62z"/>
	<path class="st2" d="M47.92,17.67c0.04,0.01,0.12,0.03,0.19,0.05c0.68,0.24,1.54-0.25,1.75-0.81c0.05-0.13,0.09-0.37,0.3-0.27
		c0.2,0.09,0.05,0.27,0,0.4c-0.24,0.57-0.67,0.88-1.26,1.04c-0.39,0.11-0.73,0.03-1.08-0.1c-0.11-0.04-0.19-0.11-0.17-0.22
		C47.67,17.64,47.79,17.68,47.92,17.67z"/>
	<path class="st2" d="M53,15.78c-0.02,0.14-0.03,0.29-0.19,0.36c-0.15,0.06-0.26-0.02-0.37-0.11c-0.31-0.27-0.49-0.76-0.37-1.05
		c0.1-0.22,0.26-0.26,0.45-0.11C52.82,15.09,52.96,15.4,53,15.78z"/>
	<path class="st2" d="M45.03,18.02c0.06,0.02,0.12,0.03,0.17,0.06c0.31,0.17,0.54,0.76,0.44,1.1c-0.06,0.2-0.18,0.24-0.36,0.16
		c-0.33-0.14-0.64-0.79-0.52-1.12C44.8,18.11,44.88,18.01,45.03,18.02z"/>
	<path class="st2" d="M16.14,19.96c-0.43-0.06-0.84-0.23-1.19-0.55c-0.1-0.09-0.18-0.23-0.07-0.34c0.11-0.11,0.22,0,0.31,0.08
		c0.17,0.15,0.35,0.28,0.56,0.36c0.59,0.22,1.09,0.05,1.53-0.37c0.1-0.1,0.2-0.19,0.32-0.06c0.11,0.12,0.01,0.22-0.08,0.31
		C17.15,19.76,16.69,19.92,16.14,19.96z"/>
	<path class="st2" d="M20.62,19c0,0.2-0.03,0.38-0.14,0.53c-0.15,0.21-0.37,0.21-0.5-0.02c-0.19-0.34-0.19-0.69-0.03-1.04
		c0.06-0.12,0.13-0.24,0.29-0.23c0.16,0.01,0.26,0.13,0.29,0.26C20.58,18.68,20.64,18.84,20.62,19z"/>
	<path class="st2" d="M12.61,18.98c0.02,0.18,0,0.38-0.13,0.56c-0.13,0.18-0.35,0.19-0.47-0.01c-0.21-0.37-0.25-0.74-0.02-1.12
		c0.13-0.22,0.39-0.21,0.52,0.01C12.58,18.55,12.6,18.67,12.61,18.98z"/>
</g>
</svg>
