<?xml version="1.0" encoding="UTF-8"?>
<svg id="Capa_1" data-name="Capa 1" xmlns="http://www.w3.org/2000/svg" viewBox="0 0 774.92 135.12">
  <defs>
    <style>
      .cls-1 {
        fill: #020826;
      }

      .cls-2 {
        fill: #ff8400;
      }

      .cls-3 {
        letter-spacing: 0em;
      }

      .cls-4 {
        letter-spacing: -.02em;
      }

      .cls-5 {
        font-family: MontserratRoman-Bold, Montserrat;
        font-size: 91.96px;
        font-variation-settings: 'wght' 700;
        font-weight: 700;
      }

      .cls-6 {
        fill: #1d1d1b;
      }

      .cls-7 {
        letter-spacing: 0em;
      }

      .cls-8 {
        fill: #ffd93d;
      }
    </style>
  </defs>
  <text class="cls-5" transform="translate(300.51 94.73)"><tspan x="0" y="0">B</tspan><tspan class="cls-3" x="70.35" y="0">r</tspan><tspan class="cls-7" x="109.16" y="0">e</tspan><tspan class="cls-4" x="166.26" y="0">w</tspan><tspan x="251.05" y="0">caps</tspan></text>
  <g>
    <path class="cls-8" d="m19.67,46.55l8.15,62.38c.85,6.48,4.5,12.3,10.07,15.71,2.57,1.57,5.46,3.12,8.69,4.55,8.96,3.95,17.06,5.38,22.69,5.92.05,0,.09,0,.13,0,4.97.11,13.05-.33,22.21-3.79,4.89-1.85,9-4.15,12.37-6.46,5.29-3.62,8.74-9.36,9.43-15.74,2.26-20.86,4.53-41.73,6.79-62.59.04-.41-.28-.78-.7-.78H20.36c-.42,0-.75.37-.69.79Z"/>
    <path class="cls-1" d="m137.53,41.41H2.46c-.65,0-1.24-.35-1.51-.92-.52-1.09-1.1-2.79-.92-4.87.12-1.34.51-2.45.91-3.27.28-.57.86-.92,1.51-.92h135.07c.69,0,1.3.4,1.56,1.02.38.94.75,2.22.78,3.76.04,1.74-.37,3.19-.79,4.2-.25.61-.87,1.01-1.55,1.01Z"/>
    <g>
      <ellipse cx="50.93" cy="82.15" rx="1.81" ry="3.43"/>
      <ellipse cx="88.94" cy="82.39" rx="1.81" ry="3.43"/>
      <path class="cls-6" d="m63.5,83.73c1.48,1.74,3.77,2.85,6.05,2.95,2.52.11,5.07-1.03,6.7-2.95.52-.61-.36-1.5-.88-.88-1.43,1.69-3.6,2.69-5.81,2.59-1.96-.09-3.89-1.09-5.17-2.59-.52-.61-1.4.27-.88.88h0Z"/>
    </g>
    <path class="cls-2" d="m164.84,61.71l32.72,53.73c3.4,5.58,9.1,9.43,15.57,10.29,2.99.4,6.26.64,9.78.64,9.79-.02,17.77-1.99,23.14-3.78.04-.01.08-.03.12-.05,4.59-1.91,11.8-5.58,18.77-12.46,3.72-3.67,6.55-7.44,8.69-10.91,3.37-5.45,4.2-12.1,2.25-18.21-6.38-19.99-12.76-39.99-19.14-59.98-.13-.4-.57-.6-.95-.43l-90.66,40.15c-.39.17-.53.64-.31,1Z"/>
    <path class="cls-1" d="m270.54,9.28l-123.49,54.7c-.59.26-1.27.18-1.75-.23-.92-.78-2.14-2.11-2.81-4.08-.44-1.27-.52-2.45-.49-3.36.02-.63.42-1.2,1.01-1.46L266.5.15c.63-.28,1.35-.16,1.84.3.73.7,1.59,1.72,2.24,3.12.74,1.58.95,3.06.98,4.16.02.66-.39,1.27-1.01,1.55Z"/>
    <g>
      <ellipse cx="207.63" cy="81.7" rx="1.81" ry="3.43" transform="translate(-15.3 91.08) rotate(-23.89)"/>
      <path d="m244.13,65.79c.77,1.73.65,3.47-.26,3.87-.91.4-2.27-.67-3.04-2.41-.77-1.73-.65-3.47.26-3.87.91-.4,2.27.67,3.04,2.41Z"/>
      <path class="cls-6" d="m219.67,78.01c2.46,1.18,5.47,1.15,7.85-.2,1.87-1.06,3.31-2.91,3.91-4.98.23-.77-.98-1.1-1.21-.33-.5,1.71-1.67,3.24-3.2,4.15-1.34.8-2.89,1.1-4.44.92-.78-.09-1.7-.35-2.3-.64-.72-.35-1.36.73-.63,1.08h0Z"/>
    </g>
  </g>
</svg>